<svg xmlns="http://www.w3.org/2000/svg" id="mainsvg" width="477.33334732055664" height="258.24999809265137" viewBox="-237.2187557220459 -10 477.33334732055664 258.24999809265137"><defs><marker id="arrow" viewBox="0 0 10 10" refX="10" refY="5" markerWidth="6" markerHeight="6" orient="auto-start-reverse"><path d="M 0 0 L 10 5 L 0 10 z"/></marker><filter id="shadowfilter" x="-20%" y="-20%" width="150%" height="150%" filterUnits="objectBoundingBox" primitiveUnits="userSpaceOnUse" color-interpolation-filters="linearRGB"><feDropShadow stdDeviation="4 4" in="SourceGraphic" dx="1" dy="1" flood-color="#BABABA" flood-opacity="0.9" x="0%" y="0%" width="100%" height="100%" result="dropShadow"/></filter><filter id="shadowfilter2" x="0" y="0" width="200%" height="200%" filterUnits="userSpaceOnUse" color-interpolation-filters="sRGB"><feFlood flood-opacity="0" result="BackgroundImageFix"/><feColorMatrix in="SourceAlpha" type="matrix" values="0 0 0 0 0 0 0 0 0 0 0 0 0 0 0 0 0 0 127 0"/><feOffset dy="4" dx="2"/><feGaussianBlur stdDeviation="2"/><feColorMatrix type="matrix" values="0 0 0 0 0 0 0 0 0 0 0 0 0 0 0 0 0 0 0.25 0"/><feBlend mode="normal" in2="BackgroundImageFix" result="effect1_dropShadow"/><feBlend mode="normal" in="SourceGraphic" in2="effect1_dropShadow" result="shape"/></filter></defs><g transform="translate(-72.73958206176758, 0)"><rect width="120.375" height="31.41666603088379" stroke="#555656" fill="white" stroke-width="1.3" transform="translate(0, 0)" rx="2" filter="url(#shadowfilter)"/><text fill="black" font-size="16" font-weight="normal" transform="translate(6, 6)" alignment-baseline="middle" font-family="Bookman"><tspan x="0" dy="16">Logic and orders</tspan></text></g><g transform="translate(-122.02083778381348, 85.41666603088379)"><rect width="67.95833587646484" height="31.41666603088379" stroke="#555656" fill="white" stroke-width="1.3" transform="translate(0, 0)" rx="2" filter="url(#shadowfilter)"/><text fill="black" font-size="16" font-weight="normal" transform="translate(6, 6)" alignment-baseline="middle" font-family="Bookman"><tspan x="0" dy="16">Network</tspan></text></g><g transform="translate(-23.10416603088379, 85.41666603088379)"><rect width="53.72916793823242" height="31.41666603088379" stroke="#555656" fill="white" stroke-width="1.3" transform="translate(0, 0)" rx="2" filter="url(#shadowfilter)"/><text fill="black" font-size="16" font-weight="normal" transform="translate(6, 6)" alignment-baseline="middle" font-family="Bookman"><tspan x="0" dy="16">Driver</tspan></text></g><g transform="translate(-227.2187557220459, 206.83333206176758)"><rect width="77.27083587646484" height="31.41666603088379" stroke="#555656" fill="white" stroke-width="1.3" transform="translate(0, 0)" rx="2" filter="url(#shadowfilter)"/><text fill="black" font-size="16" font-weight="normal" transform="translate(6, 6)" alignment-baseline="middle" font-family="Bookman"><tspan x="0" dy="16">Cab lights</tspan></text></g><g transform="translate(-115.3437557220459, 206.83333206176758)"><rect width="79.04167175292969" height="31.41666603088379" stroke="#555656" fill="white" stroke-width="1.3" transform="translate(0, 0)" rx="2" filter="url(#shadowfilter)"/><text fill="black" font-size="16" font-weight="normal" transform="translate(6, 6)" alignment-baseline="middle" font-family="Bookman"><tspan x="0" dy="16">Hall lights</tspan></text></g><g transform="translate(-3.802083969116211, 206.83333206176758)"><rect width="51.958335876464844" height="31.41666603088379" stroke="#555656" fill="white" stroke-width="1.3" transform="translate(0, 0)" rx="2" filter="url(#shadowfilter)"/><text fill="black" font-size="16" font-weight="normal" transform="translate(6, 6)" alignment-baseline="middle" font-family="Bookman"><tspan x="0" dy="16">Motor</tspan></text></g><g transform="translate(74.19791984558105, 206.83333206176758)"><rect width="64.39583587646484" height="31.41666603088379" stroke="#555656" fill="white" stroke-width="1.3" transform="translate(0, 0)" rx="2" filter="url(#shadowfilter)"/><text fill="black" font-size="16" font-weight="normal" transform="translate(6, 6)" alignment-baseline="middle" font-family="Bookman"><tspan x="0" dy="16">Position</tspan></text></g><g transform="translate(168.38542366027832, 206.83333206176758)"><rect width="61.72916793823242" height="31.41666603088379" stroke="#555656" fill="white" stroke-width="1.3" transform="translate(0, 0)" rx="2" filter="url(#shadowfilter)"/><text fill="black" font-size="16" font-weight="normal" transform="translate(6, 6)" alignment-baseline="middle" font-family="Bookman"><tspan x="0" dy="16">Buttons</tspan></text></g><g transform="translate(58.12500190734863, 85.41666603088379)"><rect width="53.72916793823242" height="31.41666603088379" stroke="#555656" fill="white" stroke-width="1.3" transform="translate(0, 0)" rx="2" filter="url(#shadowfilter)"/><text fill="black" font-size="16" font-weight="normal" transform="translate(6, 6)" alignment-baseline="middle" font-family="Bookman"><tspan x="0" dy="16">Queue</tspan></text></g><path fill="none" stroke="black" d="M-12.552082061767578,31.41666603088379C-12.552082061767578,58.41666603088379,-88.04166984558105,58.41666603088379,-88.04166984558105,85.41666603088379"/><path fill="none" stroke="black" d="M-12.552082061767578,31.41666603088379C-12.552082061767578,58.41666603088379,3.760417938232422,58.41666603088379,3.760417938232422,85.41666603088379"/><path fill="none" stroke="black" d="M-12.552082061767578,31.41666603088379C-12.552082061767578,58.41666603088379,84.98958587646484,58.41666603088379,84.98958587646484,85.41666603088379"/><path fill="none" stroke="black" d="M3.760417938232422,116.83333206176758C3.760417938232422,161.83333206176758,-188.58333778381348,161.83333206176758,-188.58333778381348,206.83333206176758"/><path fill="none" stroke="black" d="M3.760417938232422,116.83333206176758C3.760417938232422,161.83333206176758,-75.82291984558105,161.83333206176758,-75.82291984558105,206.83333206176758"/><path fill="none" stroke="black" d="M3.760417938232422,116.83333206176758C3.760417938232422,161.83333206176758,22.17708396911621,161.83333206176758,22.17708396911621,206.83333206176758"/><path fill="none" stroke="black" d="M3.760417938232422,116.83333206176758C3.760417938232422,161.83333206176758,106.39583778381348,161.83333206176758,106.39583778381348,206.83333206176758"/><path fill="none" stroke="black" d="M3.760417938232422,116.83333206176758C3.760417938232422,161.83333206176758,199.25000762939453,161.83333206176758,199.25000762939453,206.83333206176758"/></svg>