<svg xmlns="http://www.w3.org/2000/svg" id="mainsvg" width="659.7083511352539" height="367.3333282470703" viewBox="-10 -10 659.7083511352539 367.3333282470703"><defs><marker id="arrow" viewBox="0 0 10 10" refX="10" refY="5" markerWidth="6" markerHeight="6" orient="auto-start-reverse"><path d="M 0 0 L 10 5 L 0 10 z"/></marker><filter id="shadowfilter" x="-20%" y="-20%" width="150%" height="150%" filterUnits="objectBoundingBox" primitiveUnits="userSpaceOnUse" color-interpolation-filters="linearRGB"><feDropShadow stdDeviation="4 4" in="SourceGraphic" dx="1" dy="1" flood-color="#BABABA" flood-opacity="0.9" x="0%" y="0%" width="100%" height="100%" result="dropShadow"/></filter><filter id="shadowfilter2" x="0" y="0" width="200%" height="200%" filterUnits="userSpaceOnUse" color-interpolation-filters="sRGB"><feFlood flood-opacity="0" result="BackgroundImageFix"/><feColorMatrix in="SourceAlpha" type="matrix" values="0 0 0 0 0 0 0 0 0 0 0 0 0 0 0 0 0 0 127 0"/><feOffset dy="4" dx="2"/><feGaussianBlur stdDeviation="2"/><feColorMatrix type="matrix" values="0 0 0 0 0 0 0 0 0 0 0 0 0 0 0 0 0 0 0.25 0"/><feBlend mode="normal" in2="BackgroundImageFix" result="effect1_dropShadow"/><feBlend mode="normal" in="SourceGraphic" in2="effect1_dropShadow" result="shape"/></filter></defs><g transform="translate(0, 0)"><rect width="639.7083511352539" height="347.3333282470703" stroke="black" fill="white" stroke-width="1" transform="translate(0, 0)" rx="2" filter="url(#shadowfilter)"/><g transform="translate(4, 4)"><rect width="140.83333587646484" height="31.41666603088379" stroke="none" fill="white" stroke-width="1" transform="translate(0, 0)" rx="5"/><text fill="black" font-size="16" font-weight="normal" transform="translate(6, 6)" alignment-baseline="middle"><tspan x="0" dy="16">Elevator system</tspan></text></g><g transform="translate(8, 39.41666603088379)"><rect width="254.83334350585938" height="291.9166622161865" stroke="black" fill="white" stroke-width="1" transform="translate(0, 0)" rx="2" filter="url(#shadowfilter)"/><g transform="translate(4, 4)"><rect width="145.47916412353516" height="31.41666603088379" stroke="none" fill="white" stroke-width="1" transform="translate(0, 0)" rx="5"/><text fill="black" font-size="16" font-weight="normal" transform="translate(6, 6)" alignment-baseline="middle"><tspan x="0" dy="16">Logic and orders</tspan></text></g><g transform="translate(8, 39.41666603088379)"><rect width="238.83334350585938" height="236.49999618530273" stroke="black" fill="white" stroke-width="1" transform="translate(0, 0)" rx="2" filter="url(#shadowfilter)"/><g transform="translate(4, 4)"><rect width="63.000003814697266" height="31.41666603088379" stroke="none" fill="white" stroke-width="1" transform="translate(0, 0)" rx="5"/><text fill="black" font-size="16" font-weight="normal" transform="translate(6, 6)" alignment-baseline="middle"><tspan x="0" dy="16">States</tspan></text></g><g transform="translate(8, 39.41666603088379)"><rect width="222.83334350585938" height="31.41666603088379" stroke="#555656" fill="white" stroke-width="1.3" transform="translate(0, 0)" rx="2" filter="url(#shadowfilter)"/><text fill="black" font-size="16" font-weight="normal" transform="translate(97.65625381469727, 6)" alignment-baseline="middle" font-family="Verdana"><tspan x="0" dy="16">Init</tspan></text></g><g transform="translate(8, 70.83333206176758)"><rect width="222.83334350585938" height="86.83333206176758" stroke="black" fill="white" stroke-width="1" transform="translate(0, 0)" rx="2" filter="url(#shadowfilter)"/><g transform="translate(4, 4)"><rect width="70.04166793823242" height="31.41666603088379" stroke="none" fill="white" stroke-width="1" transform="translate(0, 0)" rx="5"/><text fill="black" font-size="16" font-weight="normal" transform="translate(76, 6)" alignment-baseline="middle" font-family="Verdana"><tspan x="0" dy="16">Normal</tspan></text></g><g transform="translate(8, 39.41666603088379)"><rect width="88.97917175292969" height="31.41666603088379" stroke="#555656" fill="white" stroke-width="1.3" transform="translate(0, 0)" rx="2" filter="url(#shadowfilter)"/><text fill="black" font-size="16" font-weight="normal" transform="translate(6, 6)" alignment-baseline="middle" font-family="Verdana"><tspan x="0" dy="16">Ack timer</tspan></text></g><g transform="translate(96.97917175292969, 39.41666603088379)"><rect width="117.85417175292969" height="31.41666603088379" stroke="#555656" fill="white" stroke-width="1.3" transform="translate(0, 0)" rx="2" filter="url(#shadowfilter)"/><text fill="black" font-size="16" font-weight="normal" transform="translate(6, 6)" alignment-baseline="middle" font-family="Verdana"><tspan x="0" dy="16">Cost function</tspan></text></g></g><g transform="translate(8, 157.66666412353516)"><rect width="222.83334350585938" height="31.41666603088379" stroke="#555656" fill="white" stroke-width="1.3" transform="translate(0, 0)" rx="2" filter="url(#shadowfilter)"/><text fill="black" font-size="16" font-weight="normal" transform="translate(96.11458683013916, 6)" alignment-baseline="middle" font-family="Verdana"><tspan x="0" dy="16">Idle</tspan></text></g><g transform="translate(8, 189.08333015441895)"><rect width="222.83334350585938" height="31.41666603088379" stroke="#555656" fill="white" stroke-width="1.3" transform="translate(0, 0)" rx="2" filter="url(#shadowfilter)"/><text fill="black" font-size="16" font-weight="normal" transform="translate(98.03125381469727, 6)" alignment-baseline="middle" font-family="Verdana"><tspan x="0" dy="16">Fail</tspan></text></g></g></g><g transform="translate(262.8333435058594, 39.41666603088379)"><rect width="119.8125" height="291.9166622161865" stroke="black" fill="white" stroke-width="1" transform="translate(0, 0)" rx="2" filter="url(#shadowfilter)"/><g transform="translate(4, 4)"><rect width="78.91667175292969" height="31.41666603088379" stroke="none" fill="white" stroke-width="1" transform="translate(0, 0)" rx="5"/><text fill="black" font-size="16" font-weight="normal" transform="translate(6, 6)" alignment-baseline="middle"><tspan x="0" dy="16">Network</tspan></text></g><g transform="translate(8, 39.41666603088379)"><rect width="103.8125" height="59.124999046325684" stroke="#555656" fill="white" stroke-width="1.3" transform="translate(0, 0)" rx="2" filter="url(#shadowfilter)"/><text fill="black" font-size="16" font-weight="normal" transform="translate(6, 19.854166507720947)" alignment-baseline="middle" font-family="Verdana"><tspan x="0" dy="16">Transmitter</tspan></text></g><g transform="translate(8, 98.54166507720947)"><rect width="103.8125" height="59.124999046325684" stroke="#555656" fill="white" stroke-width="1.3" transform="translate(0, 0)" rx="2" filter="url(#shadowfilter)"/><text fill="black" font-size="16" font-weight="normal" transform="translate(17.802082061767578, 19.854166507720947)" alignment-baseline="middle" font-family="Verdana"><tspan x="0" dy="16">Receiver</tspan></text></g><g transform="translate(8, 157.66666412353516)"><rect width="103.8125" height="59.124999046325684" stroke="#555656" fill="white" stroke-width="1.3" transform="translate(0, 0)" rx="2" filter="url(#shadowfilter)"/><text fill="black" font-size="16" font-weight="normal" transform="translate(18.791664123535156, 19.854166507720947)" alignment-baseline="middle" font-family="Verdana"><tspan x="0" dy="16">Decoder</tspan></text></g><g transform="translate(8, 216.79166316986084)"><rect width="103.8125" height="59.124999046325684" stroke="#555656" fill="white" stroke-width="1.3" transform="translate(0, 0)" rx="2" filter="url(#shadowfilter)"/><text fill="black" font-size="16" font-weight="normal" transform="translate(19.604164123535156, 19.854166507720947)" alignment-baseline="middle" font-family="Verdana"><tspan x="0" dy="16">Encoder</tspan></text></g></g><g transform="translate(382.6458435058594, 39.41666603088379)"><rect width="99.14583587646484" height="291.9166622161865" stroke="black" fill="white" stroke-width="1" transform="translate(0, 0)" rx="2" filter="url(#shadowfilter)"/><g transform="translate(4, 4)"><rect width="63.895835876464844" height="31.41666603088379" stroke="none" fill="white" stroke-width="1" transform="translate(0, 0)" rx="5"/><text fill="black" font-size="16" font-weight="normal" transform="translate(6, 6)" alignment-baseline="middle"><tspan x="0" dy="16">Queue</tspan></text></g><g transform="translate(8, 39.41666603088379)"><rect width="83.14583587646484" height="118.24999809265137" stroke="#555656" fill="white" stroke-width="1.3" transform="translate(0, 0)" rx="2" filter="url(#shadowfilter)"/><text fill="black" font-size="16" font-weight="normal" transform="translate(6.8125, 49.41666603088379)" alignment-baseline="middle" font-family="Verdana"><tspan x="0" dy="16">Enqueue</tspan></text></g><g transform="translate(8, 157.66666412353516)"><rect width="83.14583587646484" height="118.24999809265137" stroke="#555656" fill="white" stroke-width="1.3" transform="translate(0, 0)" rx="2" filter="url(#shadowfilter)"/><text fill="black" font-size="16" font-weight="normal" transform="translate(6, 49.41666603088379)" alignment-baseline="middle" font-family="Verdana"><tspan x="0" dy="16">Dequeue</tspan></text></g></g><g transform="translate(481.7916793823242, 39.41666603088379)"><rect width="149.9166717529297" height="291.9166622161865" stroke="black" fill="white" stroke-width="1" transform="translate(0, 0)" rx="2" filter="url(#shadowfilter)"/><g transform="translate(4, 4)"><rect width="61.22916793823242" height="31.41666603088379" stroke="none" fill="white" stroke-width="1" transform="translate(0, 0)" rx="5"/><text fill="black" font-size="16" font-weight="normal" transform="translate(6, 6)" alignment-baseline="middle"><tspan x="0" dy="16">Driver</tspan></text></g><g transform="translate(8, 39.41666603088379)"><rect width="133.9166717529297" height="236.49999618530273" stroke="black" fill="white" stroke-width="1" transform="translate(0, 0)" rx="2" filter="url(#shadowfilter)"/><g transform="translate(4, 4)"><rect width="117.91667175292969" height="31.41666603088379" stroke="none" fill="white" stroke-width="1" transform="translate(0, 0)" rx="5"/><text fill="black" font-size="16" font-weight="normal" transform="translate(6, 6)" alignment-baseline="middle"><tspan x="0" dy="16">Sub-modules</tspan></text></g><g transform="translate(8, 39.41666603088379)"><rect width="117.91667175292969" height="36.216666030883786" stroke="#555656" fill="white" stroke-width="1.3" transform="translate(0, 0)" rx="2" filter="url(#shadowfilter)"/><text fill="black" font-size="16" font-weight="normal" transform="translate(19.020835876464844, 8.399999999999999)" alignment-baseline="middle" font-family="Verdana"><tspan x="0" dy="16">Cab lights</tspan></text></g><g transform="translate(8, 75.63333206176758)"><rect width="117.91667175292969" height="36.216666030883786" stroke="#555656" fill="white" stroke-width="1.3" transform="translate(0, 0)" rx="2" filter="url(#shadowfilter)"/><text fill="black" font-size="16" font-weight="normal" transform="translate(19.1875, 8.399999999999999)" alignment-baseline="middle" font-family="Verdana"><tspan x="0" dy="16">Hall lights</tspan></text></g><g transform="translate(8, 111.84999809265136)"><rect width="117.91667175292969" height="36.216666030883786" stroke="#555656" fill="white" stroke-width="1.3" transform="translate(0, 0)" rx="2" filter="url(#shadowfilter)"/><text fill="black" font-size="16" font-weight="normal" transform="translate(35.95833396911621, 8.399999999999999)" alignment-baseline="middle" font-family="Verdana"><tspan x="0" dy="16">Motor</tspan></text></g><g transform="translate(8, 148.06666412353513)"><rect width="117.91667175292969" height="36.216666030883786" stroke="#555656" fill="white" stroke-width="1.3" transform="translate(0, 0)" rx="2" filter="url(#shadowfilter)"/><text fill="black" font-size="16" font-weight="normal" transform="translate(28.031251907348633, 8.399999999999999)" alignment-baseline="middle" font-family="Verdana"><tspan x="0" dy="16">Buttons</tspan></text></g><g transform="translate(8, 184.28333015441893)"><rect width="117.91667175292969" height="36.216666030883786" stroke="#555656" fill="white" stroke-width="1.3" transform="translate(0, 0)" rx="2" filter="url(#shadowfilter)"/><text fill="black" font-size="16" font-weight="normal" transform="translate(27.86458396911621, 8.399999999999999)" alignment-baseline="middle" font-family="Verdana"><tspan x="0" dy="16">Position</tspan></text></g></g></g></g></svg>