<svg xmlns="http://www.w3.org/2000/svg" id="mainsvg" width="875.099967956543" height="624.2166690826416" viewBox="-10 -10 875.099967956543 624.2166690826416"><defs><marker id="arrow" viewBox="0 0 10 10" refX="10" refY="5" markerWidth="6" markerHeight="6" orient="auto-start-reverse"><path d="M 0 0 L 10 5 L 0 10 z"/></marker><filter id="shadowfilter" x="-20%" y="-20%" width="150%" height="150%" filterUnits="objectBoundingBox" primitiveUnits="userSpaceOnUse" color-interpolation-filters="linearRGB"><feDropShadow stdDeviation="4 4" in="SourceGraphic" dx="1" dy="1" flood-color="#BABABA" flood-opacity="0.9" x="0%" y="0%" width="100%" height="100%" result="dropShadow"/></filter><filter id="shadowfilter2" x="0" y="0" width="200%" height="200%" filterUnits="userSpaceOnUse" color-interpolation-filters="sRGB"><feFlood flood-opacity="0" result="BackgroundImageFix"/><feColorMatrix in="SourceAlpha" type="matrix" values="0 0 0 0 0 0 0 0 0 0 0 0 0 0 0 0 0 0 127 0"/><feOffset dy="4" dx="2"/><feGaussianBlur stdDeviation="2"/><feColorMatrix type="matrix" values="0 0 0 0 0 0 0 0 0 0 0 0 0 0 0 0 0 0 0.25 0"/><feBlend mode="normal" in2="BackgroundImageFix" result="effect1_dropShadow"/><feBlend mode="normal" in="SourceGraphic" in2="effect1_dropShadow" result="shape"/></filter></defs><g transform="translate(0, 0)"><rect width="76.04999542236328" height="38.11666679382324" stroke="#555656" fill="white" stroke-width="1.3" transform="translate(0, 0)" rx="2" filter="url(#shadowfilter)"/><text fill="black" font-size="16" font-weight="normal" transform="translate(10, 10)" alignment-baseline="middle" font-family="Bookman"><tspan x="0" dy="16">Network</tspan></text></g><g transform="translate(219.79999160766602, 0)"><rect width="128.46665954589844" height="38.11666679382324" stroke="#555656" fill="white" stroke-width="1.3" transform="translate(0, 0)" rx="2" filter="url(#shadowfilter)"/><text fill="black" font-size="16" font-weight="normal" transform="translate(10, 10)" alignment-baseline="middle" font-family="Bookman"><tspan x="0" dy="16">Logic and orders</tspan></text></g><g transform="translate(512.3187313079834, 0)"><rect width="61.82082748413086" height="38.11666679382324" stroke="#555656" fill="white" stroke-width="1.3" transform="translate(0, 0)" rx="2" filter="url(#shadowfilter)"/><text fill="black" font-size="16" font-weight="normal" transform="translate(10, 10)" alignment-baseline="middle" font-family="Bookman"><tspan x="0" dy="16">Queue</tspan></text></g><g transform="translate(598.1395587921143, 0)"><rect width="61.82082748413086" height="38.11666679382324" stroke="#555656" fill="white" stroke-width="1.3" transform="translate(0, 0)" rx="2" filter="url(#shadowfilter)"/><text fill="black" font-size="16" font-weight="normal" transform="translate(10, 10)" alignment-baseline="middle" font-family="Bookman"><tspan x="0" dy="16">Driver</tspan></text></g><path d="M 38.02499771118164,72.23333358764648 L 284.03332138061523 72.23333358764648" fill="none" stroke="black" stroke-dasharray="none" stroke-width="1" marker-end="url(#arrow)"/><path d="M 284.03332138061523,102.35000038146973 L 38.02499771118164 102.35000038146973" fill="none" stroke="black" stroke-dasharray="none" stroke-width="1" marker-end="url(#arrow)"/><path d="M 284.03332138061523,110.35000038146973 L 294.03332138061523 110.35000038146973 L 294.03332138061523 128.46666717529297 L 284.03332138061523 128.46666717529297" fill="none" stroke="black" stroke-dasharray="none" stroke-width="1" marker-end="url(#arrow)"/><path d="M 38.02499771118164,162.5833339691162 L 284.03332138061523 162.5833339691162" fill="none" stroke="black" stroke-dasharray="none" stroke-width="1" marker-end="url(#arrow)"/><path d="M 284.03332138061523,192.70000076293945 L 38.02499771118164 192.70000076293945" fill="none" stroke="black" stroke-dasharray="4,4" stroke-width="1" marker-end="url(#arrow)"/><path d="M 284.03332138061523,222.8166675567627 L 543.2291450500488 222.8166675567627" fill="none" stroke="black" stroke-dasharray="none" stroke-width="1" marker-end="url(#arrow)"/><path d="M 543.2291450500488,230.8166675567627 L 553.2291450500488 230.8166675567627 L 553.2291450500488 248.93333435058594 L 543.2291450500488 248.93333435058594" fill="none" stroke="black" stroke-dasharray="none" stroke-width="1" marker-end="url(#arrow)"/><path d="M 543.2291450500488,283.0500011444092 L 284.03332138061523 283.0500011444092" fill="none" stroke="black" stroke-dasharray="4,4" stroke-width="1" marker-end="url(#arrow)"/><path d="M 284.03332138061523,313.1666679382324 L 629.0499725341797 313.1666679382324" fill="none" stroke="black" stroke-dasharray="none" stroke-width="1" marker-end="url(#arrow)"/><path d="M 629.0499725341797,321.1666679382324 L 639.0499725341797 321.1666679382324 L 639.0499725341797 339.28333473205566 L 629.0499725341797 339.28333473205566" fill="none" stroke="black" stroke-dasharray="none" stroke-width="1" marker-end="url(#arrow)"/><path d="M 629.0499725341797,373.4000015258789 L 284.03332138061523 373.4000015258789" fill="none" stroke="black" stroke-dasharray="none" stroke-width="1" marker-end="url(#arrow)"/><path d="M 629.0499725341797,381.4000015258789 L 639.0499725341797 381.4000015258789 L 639.0499725341797 399.51666831970215 L 629.0499725341797 399.51666831970215" fill="none" stroke="black" stroke-dasharray="none" stroke-width="1" marker-end="url(#arrow)"/><path d="M 629.0499725341797,411.51666831970215 L 639.0499725341797 411.51666831970215 L 639.0499725341797 429.6333351135254 L 629.0499725341797 429.6333351135254" fill="none" stroke="black" stroke-dasharray="none" stroke-width="1" marker-end="url(#arrow)"/><path d="M 629.0499725341797,441.6333351135254 L 639.0499725341797 441.6333351135254 L 639.0499725341797 459.75000190734863 L 629.0499725341797 459.75000190734863" fill="none" stroke="black" stroke-dasharray="none" stroke-width="1" marker-end="url(#arrow)"/><path d="M 629.0499725341797,493.8666687011719 L 284.03332138061523 493.8666687011719" fill="none" stroke="black" stroke-dasharray="none" stroke-width="1" marker-end="url(#arrow)"/><path d="M 284.03332138061523,523.9833354949951 L 38.02499771118164 523.9833354949951" fill="none" stroke="black" stroke-dasharray="none" stroke-width="1" marker-end="url(#arrow)"/><path d="M 284.03332138061523,554.1000022888184 L 543.2291450500488 554.1000022888184" fill="none" stroke="black" stroke-dasharray="none" stroke-width="1" marker-end="url(#arrow)"/><path d="M 543.2291450500488,562.1000022888184 L 553.2291450500488 562.1000022888184 L 553.2291450500488 580.2166690826416 L 543.2291450500488 580.2166690826416" fill="none" stroke="black" stroke-dasharray="none" stroke-width="1" marker-end="url(#arrow)"/><path d="M 38.02499771118164,38.11666679382324 L 38.02499771118164 604.2166690826416" fill="none" stroke="black" stroke-dasharray="none" stroke-width="1"/><path d="M 284.03332138061523,38.11666679382324 L 284.03332138061523 604.2166690826416" fill="none" stroke="black" stroke-dasharray="none" stroke-width="1"/><path d="M 543.2291450500488,38.11666679382324 L 543.2291450500488 604.2166690826416" fill="none" stroke="black" stroke-dasharray="none" stroke-width="1"/><path d="M 629.0499725341797,38.11666679382324 L 629.0499725341797 604.2166690826416" fill="none" stroke="black" stroke-dasharray="none" stroke-width="1"/><g transform="translate(76.23332595825195, 50.11666679382324)"><rect width="169.59166717529297" height="18.116666793823242" stroke="none" fill="white" stroke-width="1" transform="translate(0, 0)" rx="5"/><text fill="black" font-size="14" font-weight="normal" transform="translate(1, 1)" alignment-baseline="middle"><tspan x="0" dy="14">New order broadcast message</tspan></text></g><g transform="translate(69.38957595825195, 80.23333358764648)"><rect width="183.27916717529297" height="18.116666793823242" stroke="none" fill="white" stroke-width="1" transform="translate(0, 0)" rx="5"/><text fill="black" font-size="14" font-weight="normal" transform="translate(1, 1)" alignment-baseline="middle"><tspan x="0" dy="14">Send own position and direction</tspan></text></g><g transform="translate(296.03332138061523, 110.35000038146973)"><rect width="128.04999542236328" height="18.116666793823242" stroke="none" fill="white" stroke-width="1" transform="translate(0, 0)" rx="5"/><text fill="black" font-size="14" font-weight="normal" transform="translate(1, 1)" alignment-baseline="middle"><tspan x="0" dy="14">Continue current tasks</tspan></text></g><g transform="translate(62.02499771118164, 140.46666717529297)"><rect width="198.0083236694336" height="18.116666793823242" stroke="none" fill="white" stroke-width="1" transform="translate(0, 0)" rx="5"/><text fill="black" font-size="14" font-weight="normal" transform="translate(1, 1)" alignment-baseline="middle"><tspan x="0" dy="14">Assigned task: execute given order</tspan></text></g><g transform="translate(65.7541618347168, 170.5833339691162)"><rect width="190.54999542236328" height="18.116666793823242" stroke="none" fill="white" stroke-width="1" transform="translate(0, 0)" rx="5"/><text fill="black" font-size="14" font-weight="normal" transform="translate(1, 1)" alignment-baseline="middle"><tspan x="0" dy="14">Acknowledge received order (x2)</tspan></text></g><g transform="translate(344.97082138061523, 200.70000076293945)"><rect width="137.3208236694336" height="18.116666793823242" stroke="none" fill="white" stroke-width="1" transform="translate(0, 0)" rx="5"/><text fill="black" font-size="14" font-weight="normal" transform="translate(1, 1)" alignment-baseline="middle"><tspan x="0" dy="14">Add new order to queue</tspan></text></g><g transform="translate(555.2291450500488, 230.8166675567627)"><rect width="62.32082748413086" height="18.116666793823242" stroke="none" fill="white" stroke-width="1" transform="translate(0, 0)" rx="5"/><text fill="black" font-size="14" font-weight="normal" transform="translate(1, 1)" alignment-baseline="middle"><tspan x="0" dy="14">Sort queue</tspan></text></g><g transform="translate(365.97081756591797, 260.93333435058594)"><rect width="95.32083129882812" height="18.116666793823242" stroke="none" fill="white" stroke-width="1" transform="translate(0, 0)" rx="5"/><text fill="black" font-size="14" font-weight="normal" transform="translate(1, 1)" alignment-baseline="middle"><tspan x="0" dy="14">Order to execute</tspan></text></g><g transform="translate(400.68331718444824, 291.0500011444092)"><rect width="111.71665954589844" height="18.116666793823242" stroke="none" fill="white" stroke-width="1" transform="translate(0, 0)" rx="5"/><text fill="black" font-size="14" font-weight="normal" transform="translate(1, 1)" alignment-baseline="middle"><tspan x="0" dy="14">Go to floor in order</tspan></text></g><g transform="translate(641.0499725341797, 321.1666679382324)"><rect width="65.4666633605957" height="18.116666793823242" stroke="none" fill="white" stroke-width="1" transform="translate(0, 0)" rx="5"/><text fill="black" font-size="14" font-weight="normal" transform="translate(1, 1)" alignment-baseline="middle"><tspan x="0" dy="14">Start motor</tspan></text></g><g transform="translate(361.214563369751, 351.28333473205566)"><rect width="190.65416717529297" height="18.116666793823242" stroke="none" fill="white" stroke-width="1" transform="translate(0, 0)" rx="5"/><text fill="black" font-size="14" font-weight="normal" transform="translate(1, 1)" alignment-baseline="middle"><tspan x="0" dy="14">Send new position for every floor</tspan></text></g><g transform="translate(641.0499725341797, 381.4000015258789)"><rect width="186.77916717529297" height="18.116666793823242" stroke="none" fill="white" stroke-width="1" transform="translate(0, 0)" rx="5"/><text fill="black" font-size="14" font-weight="normal" transform="translate(1, 1)" alignment-baseline="middle"><tspan x="0" dy="14">Stop motor when arrived in floor</tspan></text></g><g transform="translate(641.0499725341797, 411.51666831970215)"><rect width="180.54999542236328" height="18.116666793823242" stroke="none" fill="white" stroke-width="1" transform="translate(0, 0)" rx="5"/><text fill="black" font-size="14" font-weight="normal" transform="translate(1, 1)" alignment-baseline="middle"><tspan x="0" dy="14">Open doors and start door timer</tspan></text></g><g transform="translate(641.0499725341797, 441.6333351135254)"><rect width="214.04999542236328" height="18.116666793823242" stroke="none" fill="white" stroke-width="1" transform="translate(0, 0)" rx="5"/><text fill="black" font-size="14" font-weight="normal" transform="translate(1, 1)" alignment-baseline="middle"><tspan x="0" dy="14">Turn off lights corresponding to order</tspan></text></g><g transform="translate(403.7874813079834, 471.75000190734863)"><rect width="105.50833129882812" height="18.116666793823242" stroke="none" fill="white" stroke-width="1" transform="translate(0, 0)" rx="5"/><text fill="black" font-size="14" font-weight="normal" transform="translate(1, 1)" alignment-baseline="middle"><tspan x="0" dy="14">Send new position</tspan></text></g><g transform="translate(67.86874771118164, 501.8666687011719)"><rect width="186.3208236694336" height="18.116666793823242" stroke="none" fill="white" stroke-width="1" transform="translate(0, 0)" rx="5"/><text fill="black" font-size="14" font-weight="normal" transform="translate(1, 1)" alignment-baseline="middle"><tspan x="0" dy="14">Send receipt for completed order</tspan></text></g><g transform="translate(308.03332138061523, 531.9833354949951)"><rect width="211.1958236694336" height="18.116666793823242" stroke="none" fill="white" stroke-width="1" transform="translate(0, 0)" rx="5"/><text fill="black" font-size="14" font-weight="normal" transform="translate(1, 1)" alignment-baseline="middle"><tspan x="0" dy="14">Remove completed order from queue</tspan></text></g><g transform="translate(555.2291450500488, 562.1000022888184)"><rect width="139.2583236694336" height="18.116666793823242" stroke="none" fill="white" stroke-width="1" transform="translate(0, 0)" rx="5"/><text fill="black" font-size="14" font-weight="normal" transform="translate(1, 1)" alignment-baseline="middle"><tspan x="0" dy="14">Delete order from queue</tspan></text></g></svg>